# xmcd
#
# Track frame offsets: 
#        150
#        20899
#        41905
#        62003
#        83748
#        103996
#        125885
#        146403
#        166983
#        185644
#        204252
#        223360
#        245797
#        267992
#        286911
#        304822
#
# Disc length: 4350 seconds
#
# Revision: 0
# Processed by: cddbd v1.5.2PL0 Copyright (c) Steve Scherf et al.
# Submitted via: ExactAudioCopy v0.95b4
#
DISCID=0310fc10
DTITLE=Jonathan Butler - Jonathan Butler
DYEAR=1987
DGENRE=Jazz
TTITLE0=Lies
TTITLE1=Love Songs, Candlelight and You 
TTITLE2=Going Home
TTITLE3=I Miss Your Love Tonight 
TTITLE4=Holding On 
TTITLE5=One More Dance
TTITLE6=Take Good Care of Me
TTITLE7=Barenese
TTITLE8=All Over You 
TTITLE9=Overflowing
TTITLE10=Loving You
TTITLE11=Sunset 
TTITLE12=Say We'll Be Together
TTITLE13=Give a Little More Lovin' 
TTITLE14=Reunion
TTITLE15=High Tide 
EXTD=
EXTT0=
EXTT1=
EXTT2=
EXTT3=
EXTT4=
EXTT5=
EXTT6=
EXTT7=
EXTT8=
EXTT9=
EXTT10=
EXTT11=
EXTT12=
EXTT13=
EXTT14=
EXTT15=
PLAYORDER=
